<?xml version="1.0" encoding="utf-8"?>
<!-- Generator: Adobe Illustrator 24.3.0, SVG Export Plug-In . SVG Version: 6.00 Build 0)  -->
<svg version="1.1" id="Laag_1" xmlns="http://www.w3.org/2000/svg" xmlns:xlink="http://www.w3.org/1999/xlink" x="0px" y="0px"
	 viewBox="0 0 595.28 841.89" style="enable-background:new 0 0 595.28 841.89;" xml:space="preserve">
<style type="text/css">
	.st0{fill:#559E78;}
	.st1{fill:#FFFFFF;}
	.st2{fill:#F9BD88;}
</style>
<path class="st0" d="M259.47,420.33c-2.56-1.29-4.56-3.07-6.01-5.35c-1.45-2.28-2.17-4.86-2.17-7.75c0-2.89,0.72-5.48,2.17-7.75
	c1.45-2.28,3.45-4.05,6.01-5.32c2.56-1.27,5.44-1.91,8.65-1.91c3.25,0,6.15,0.64,8.71,1.91c2.56,1.27,4.55,3.04,5.98,5.32
	s2.14,4.86,2.14,7.75c0,2.89-0.71,5.48-2.14,7.75c-1.43,2.28-3.42,4.06-5.98,5.35s-5.46,1.93-8.71,1.93
	C264.92,422.26,262.03,421.62,259.47,420.33z"/>
<path class="st1" d="M295.36,420.33c-2.56-1.29-4.56-3.07-6.01-5.35c-1.45-2.28-2.17-4.86-2.17-7.75c0-2.89,0.72-5.48,2.17-7.75
	s3.45-4.05,6.01-5.32c2.56-1.27,5.44-1.91,8.65-1.91c3.25,0,6.15,0.64,8.71,1.91c2.56,1.27,4.55,3.04,5.98,5.32s2.14,4.86,2.14,7.75
	c0,2.89-0.71,5.48-2.14,7.75c-1.43,2.28-3.42,4.06-5.98,5.35s-5.46,1.93-8.71,1.93C300.8,422.26,297.92,421.62,295.36,420.33z
	 M307.4,411.44c0.88-1.01,1.32-2.41,1.32-4.21c0-1.8-0.44-3.19-1.32-4.18c-0.88-0.99-2.01-1.48-3.39-1.48s-2.51,0.49-3.39,1.48
	c-0.88,0.99-1.32,2.38-1.32,4.18c0,1.8,0.44,3.2,1.32,4.21c0.88,1.01,2.01,1.51,3.39,1.51S306.52,412.44,307.4,411.44z"/>
<path class="st1" d="M338.47,412.84l-1.91,2.06v6.83H324.6v-39.27h11.96v18.74l8.31-8.42h14.13l-11.96,12.54l12.92,16.41h-14.45
	L338.47,412.84z"/>
<path class="st1" d="M383.09,392.25v10.59c-0.95-0.14-1.83-0.21-2.65-0.21c-4.09,0-6.14,2.08-6.14,6.25v12.86h-11.96v-28.95h11.38
	v3.12C375.84,393.47,378.96,392.25,383.09,392.25z"/>
<path class="st0" d="M274,406.18l18.43-18.43c0.7-0.7,0.7-1.84,0-2.53l-1.06-1.06c-0.7-0.7-1.84-0.7-2.53,0l-18.43,18.43
	c-0.7,0.7-0.7,1.84,0,2.53l1.06,1.06C272.16,406.88,273.3,406.88,274,406.18z"/>
<path class="st1" d="M263.02,400.68c1.95,0.81,1.79-2.61,5.86-2.28c1.41,0.11,1.34,1.86,2.77,2.12c1.22,0.22,1.59-0.73,2.93-0.65
	c1.67,0.1,3.46,1.69,3.58,3.26c0.1,1.31-1.05,1.67-0.98,3.26c0.06,1.22,0.75,1.35,0.98,2.61c0.31,1.71-0.56,3.74-1.95,4.72
	c-1.09,0.77-1.58,0.25-4.07,0.81c-3,0.68-3.06,1.6-5.21,1.79c-0.39,0.03-3.93,0.31-5.21-1.63c-0.88-1.33,0.16-2.42-0.81-3.91
	c-0.93-1.43-2.21-0.95-3.1-2.28c-0.99-1.48-0.62-3.89,0.49-5.38C259.09,402.06,261.07,399.87,263.02,400.68z"/>
<circle class="st2" cx="267.73" cy="407.36" r="3.5"/>
<path class="st1" d="M227.29,420.36c-2.59-1.27-4.62-3.05-6.09-5.35c-1.46-2.29-2.2-4.89-2.2-7.78c0-2.89,0.73-5.48,2.2-7.75
	c1.46-2.28,3.49-4.05,6.09-5.32c2.59-1.27,5.53-1.91,8.81-1.91c3.53,0,6.55,0.76,9.05,2.28c2.51,1.52,4.23,3.62,5.19,6.3l-9.27,3.89
	c-1.13-2.54-2.79-3.15-5.02-3.15c-1.41,0-2.59,0.49-3.52,1.48c-0.94,0.99-1.4,2.38-1.4,4.18c0,1.83,0.47,3.25,1.4,4.23
	c0.93,0.99,2.11,1.48,3.52,1.48c2.22,0,3.9-1.27,5.03-3.81l9.26,4.55c-0.95,2.68-2.68,4.78-5.19,6.3c-2.51,1.52-5.52,2.28-9.05,2.28
	C232.82,422.26,229.89,421.63,227.29,420.36z"/>
</svg>
