<?xml version="1.0" encoding="utf-8"?>
<!-- Generator: Adobe Illustrator 24.3.0, SVG Export Plug-In . SVG Version: 6.00 Build 0)  -->
<svg version="1.1" id="Laag_1" focusable="false" xmlns="http://www.w3.org/2000/svg" xmlns:xlink="http://www.w3.org/1999/xlink"
	 x="0px" y="0px" viewBox="0 0 512 512" style="enable-background:new 0 0 512 512;" xml:space="preserve">
<style type="text/css">
	.st0{fill:#F9BD88;}
</style>
<path class="st0" d="M443.8,338.3L356.6,301c-7.6-3.3-16.5-1.1-21.8,5.4l-38.6,47.1c-60.5-28.5-109.3-77.3-137.8-137.8l47.1-38.6
	c6.5-5.2,8.6-14.1,5.4-21.8l-37.3-87.1c-3.6-8.3-12.6-12.8-21.4-10.8L71.4,76c-8.5,2-14.5,9.5-14.5,18.2
	c0,199.5,161.7,360.9,360.9,360.9c8.7,0,16.2-6,18.2-14.5l18.7-80.9C456.6,350.9,452.1,341.9,443.8,338.3L443.8,338.3z"/>
</svg>
